
@vite(['resources/sass/app.scss', 'resources/js/app.js'])
<svg id="SubscribeIconSvg" class="icon-link-hover"  width="30px" height="30px" viewBox="0 0 30 30" version="1.1" xmlns="http://www.w3.org/2000/svg" xmlns:xlink="http://www.w3.org/1999/xlink">
	<defs>
		<clipPath id="subscribe-clip-path-1">
			<path class="cls-1" d="M14.29,26.13V5.82L24.42,2.1a.76.76,0,0,1,.27-.05.85.85,0,0,1,.83.86V23a.85.85,0,0,1-.63.83L14.37,26.56C14.3,26.58,14.35,26.13,14.29,26.13Z" clip-rule="evenodd" fill="none"></path>
		</clipPath>
		<clipPath id="subscribe-clip-path-2">
			<rect class="cls-2" x="-1.61" y="-1.61" width="33.21" height="33.21" fill="none"></rect>
		</clipPath>
		<clipPath id="subscribe-clip-path-3">
			<path class="cls-1" d="M15.84,26.31c-.07,0-.14.27-.21.25L5.11,23.8A.85.85,0,0,1,4.48,23V2.91a.85.85,0,0,1,.83-.86.76.76,0,0,1,.27.05L16.11,5.85" clip-rule="evenodd" fill="none"></path>
		</clipPath>
		<clipPath id="subscribe-clip-path-5">
			<path class="cls-1" d="M14.93,26.54l14.16-.76a.88.88,0,0,0,.85-.85v-19a.87.87,0,0,0-.9-.85H29l-3.74.2M13.89,26.59H14" clip-rule="evenodd" fill="none"></path>
		</clipPath>
		<clipPath id="subscribe-clip-path-7">
			<path class="cls-1" d="M15,26.49.91,25.73a.88.88,0,0,1-.85-.85v-19A.87.87,0,0,1,1,5H1l3.74.2m11.35,21.3h-.06" clip-rule="evenodd" fill="none"></path>
		</clipPath>
	</defs>
	<polygon id="SubscribeIconPolygon-1" points="25.27 6.48 28.59 6.48 28.59 24.66 21.27 24.78 25.18 23.3 25.27 6.48" fill="#ffffff"></polygon>
	<polygon id="SubscribeIconPolygon-2" points="1.47 6.48 4.48 6.62 4.54 23.28 8.39 24.66 1.47 24.39 1.47 6.48" fill="#ffffff"></polygon>
	<g clip-path="url(#subscribe-clip-path-1)">
		<g clip-path="url(#subscribe-clip-path-2)">
			<path id="SubscribeIconElement-1" d="M14.16,26.59,13.89,5.85,24.41,2.1a.87.87,0,0,1,.28-.05.85.85,0,0,1,.83.86V23a.85.85,0,0,1-.63.83L14.37,26.57Z" stroke="#99A2AA" stroke-width="3px" fill="none" stroke-miterlimit="10"></path>
		</g>
	</g>
	<g clip-path="url(#subscribe-clip-path-3)">
		<g clip-path="url(#subscribe-clip-path-2)">
			<path id="SubscribeIconElement-2" d="M15.84,26.59l-.21,0L5.11,23.8A.85.85,0,0,1,4.48,23V2.91a.85.85,0,0,1,.83-.86.87.87,0,0,1,.28.05L16.11,5.85" stroke="#99A2AA" stroke-width="3px" fill="none" stroke-miterlimit="10"></path>
		</g>
	</g>
	<g clip-path="url(#subscribe-clip-path-5)">
		<g clip-path="url(#subscribe-clip-path-2)">
			<path id="SubscribeIconElement-3" d="M14.93,26.54l14.16-.76a.88.88,0,0,0,.85-.85v-19a.87.87,0,0,0-.9-.85H29l-3.74.2M13.89,26.59h0" stroke="#99A2AA" stroke-width="3px" stroke-linejoin="round" stroke-linecap="round" fill="none"></path>
		</g>
	</g>
	<g clip-path="url(#subscribe-clip-path-7)">
		<g clip-path="url(#subscribe-clip-path-2)">
			<path id="SubscribeIconElement-4" d="M15,26.49.91,25.73a.88.88,0,0,1-.85-.85v-19A.87.87,0,0,1,1,5H1l3.74.2m11.35,21.3h-.05" stroke="#99A2AA" stroke-width="3px" stroke-linejoin="round" stroke-linecap="round" fill="none"></path>
		</g>
	</g>
	<g clip-path="url(#subscribe-clip-path-2)">
		<line id="SubscribeIconElement-5" x1="15.04" y1="6.71" x2="15.04" y2="26.59" stroke="#99A2AA" stroke-width="1.5px" stroke-linecap="round" fill="none" stroke-miterlimit="10"></line>
	</g>
</svg>